# xmcd CD database file generated by LOLA_Freedb v0.9beta0
# 
# Track frame offsets:
#      150
#      16575
#      31655
#      49544
#      73697
#      98392
#      112351
#      121119
#      137673
# 
# Disc length: 2237 seconds
# 
# Revision: 2 
# Processed by: cddbd v1.5.2PL0 Copyright (c) Steve Scherf et al.
# Submitted via: LOLA_Freedb v0.9beta0
# 
DISCID=6708bb09
DTITLE=Bon Iver - For Emma, forever ago.
DYEAR=2008
DGENRE=New Age
TTITLE0=Flume
TTITLE1=Lump sum
TTITLE2=Skinny love
TTITLE3=The wolves (Act I and II)
TTITLE4=Blindsided
TTITLE5=Creature fear
TTITLE6=Team
TTITLE7=For Emma
TTITLE8=Re: Stacks
EXTD=YEAR: 2008
EXTT0=
EXTT1=
EXTT2=
EXTT3=
EXTT4=
EXTT5=
EXTT6=
EXTT7=
EXTT8=
PLAYORDER=
